<svg xmlns="http://www.w3.org/2000/svg" viewBox="0 0 800 520">
      <defs>
        <linearGradient id="sky" x1="0" y1="0" x2="0" y2="1">
          <stop offset="0" stop-color="#dcecff"/><stop offset="1" stop-color="#f8e7c9"/>
        </linearGradient>
        <linearGradient id="stone" x1="0" y1="0" x2="0" y2="1">
          <stop offset="0" stop-color="#f4e6cc"/><stop offset="1" stop-color="#d9c2a2"/>
        </linearGradient>
      </defs>
      <rect width="800" height="520" fill="url(#sky)"/>
      <circle cx="650" cy="85" r="38" fill="#f3c96b" opacity=".85"/>
      <rect y="390" width="800" height="130" fill="#9dbb76"/>
      <path d="M0 405 Q160 365 320 405 T640 405 T800 400 V520 H0Z" fill="#7fa267" opacity=".65"/>
    
        <rect x="250" y="230" width="300" height="160" fill="#d9c2a2" stroke="#765038" stroke-width="4"/>
        <g fill="#d9c2a2" stroke="#765038" stroke-width="4">
          <path d="M215 390 V170 Q215 135 250 135 Q285 135 285 170 V390Z"/>
          <path d="M515 390 V170 Q515 135 550 135 Q585 135 585 170 V390Z"/>
          <path d="M250 230 V170 Q250 110 310 110 Q370 110 370 170 V230Z"/>
          <path d="M430 230 V170 Q430 110 490 110 Q550 110 550 170 V230Z"/>
        </g>
        <path d="M300 390 V295 Q400 205 500 295 V390Z" fill="#4b3529" stroke="#765038" stroke-width="4"/>
        <g fill="#d39a42"><circle cx="250" cy="126" r="10"/><circle cx="550" cy="126" r="10"/></g>
        
      <rect x="0" y="470" width="800" height="50" fill="#2b2118" opacity=".82"/>
      <text x="400" y="503" text-anchor="middle" font-family="system-ui,sans-serif" font-size="25" font-weight="800" fill="white">Charminar</text>
    </svg>